<?xml version="1.0" encoding="UTF-8"?>
<svg xmlns="http://www.w3.org/2000/svg" style="display:none" aria-hidden="true">
  <symbol id="icon-home" viewBox="0 0 24 24"><path fill="currentColor" d="M12 3 3 10.5V20a1 1 0 0 0 1 1h5v-6h6v6h5a1 1 0 0 0 1-1v-9.5L12 3Z"/></symbol>
  <symbol id="icon-game" viewBox="0 0 24 24"><path fill="currentColor" d="M6 9a1 1 0 0 1 1-1h2V6a1 1 0 0 1 2 0v2h2a1 1 0 0 1 0 2h-2v2a1 1 0 0 1-2 0v-2H7a1 1 0 0 1-1-1Zm10.5 0a1.5 1.5 0 1 0 0 3 1.5 1.5 0 0 0 0-3ZM18 13.5a1.5 1.5 0 1 0 0 3 1.5 1.5 0 0 0 0-3ZM4 8.5A4.5 4.5 0 0 1 8.5 4h7A4.5 4.5 0 0 1 20 8.5v7A4.5 4.5 0 0 1 15.5 20h-7A4.5 4.5 0 0 1 4 15.5v-8Z"/></symbol>
  <symbol id="icon-ai" viewBox="0 0 24 24"><path fill="currentColor" d="M12 2a2 2 0 0 1 2 2c0 .74-.4 1.39-1 1.73V7h3a3 3 0 0 1 3 3v1.1A4 4 0 0 1 21 15v1a3 3 0 0 1-3 3h-1.1a4 4 0 0 1-7.8 0H8a3 3 0 0 1-3-3v-1a4 4 0 0 1 2-1.9V10a3 3 0 0 1 3-3h3V5.73A2 2 0 0 1 12 2Zm-1 14h2v2h-2v-2Z"/></symbol>
  <symbol id="icon-book" viewBox="0 0 24 24"><path fill="currentColor" d="M6 4.5A2.5 2.5 0 0 1 8.5 2H18a2 2 0 0 1 2 2v17.5a.5.5 0 0 1-.78.41L14 18.5l-5.22 3.41A.5.5 0 0 1 8 21.5V4.5A2.5 2.5 0 0 0 6 4.5Zm2-.5v14.86l4.22-2.76a.5.5 0 0 1 .56 0L17 18.86V4H8.5A.5.5 0 0 0 8 4.5Z"/></symbol>
  <symbol id="icon-form" viewBox="0 0 24 24"><path fill="currentColor" d="M7 3h10a2 2 0 0 1 2 2v16a1 1 0 0 1-1.45.89L12 19.12l-5.55 2.77A1 1 0 0 1 5 21V5a2 2 0 0 1 2-2Zm0 2v13.38l4.55-2.27a1 1 0 0 1 .9 0L17 18.38V5H7Z"/></symbol>
  <symbol id="icon-choice" viewBox="0 0 24 24"><path fill="currentColor" d="M4 6a2 2 0 0 1 2-2h12a2 2 0 0 1 2 2v1H4V6Zm0 4h16v8a2 2 0 0 1-2 2H6a2 2 0 0 1-2-2v-8Zm4 2v2h8v-2H8Z"/></symbol>
  <symbol id="icon-chart" viewBox="0 0 24 24"><path fill="currentColor" d="M5 19V5a1 1 0 0 1 2 0v14H5Zm6 0V9a1 1 0 0 1 2 0v10h-2Zm6 0v-6a1 1 0 0 1 2 0v6h-2Z"/></symbol>
  <symbol id="icon-family" viewBox="0 0 24 24"><path fill="currentColor" d="M12 12a3.5 3.5 0 1 0 0-7 3.5 3.5 0 0 0 0 7ZM6.5 13a3 3 0 1 0 0-6 3 3 0 0 0 0 6ZM17.5 13a3 3 0 1 0 0-6 3 3 0 0 0 0 6ZM4 20v-.5C4 17.02 7.13 15 12 15s8 2.02 8 4.5V20H4Z"/></symbol>
  <symbol id="icon-money" viewBox="0 0 24 24"><path fill="currentColor" d="M12 3a7 7 0 1 0 0 14 7 7 0 0 0 0-14Zm0 2a5 5 0 1 1 0 10 5 5 0 0 1 0-10Zm.5 2v1.07A2.5 2.5 0 0 0 10 10.5a2.5 2.5 0 0 0 2.5 2.5c.69 0 1.25.56 1.25 1.25S13.19 15.5 12.5 15.5 10 14.94 10 14H8.5c0 1.93 1.57 3.5 3.5 3.5s3.5-1.57 3.5-3.5a3.5 3.5 0 0 0-2.5-3.36V7h-1Z"/></symbol>
  <symbol id="icon-heating" viewBox="0 0 24 24"><path fill="currentColor" d="M12 2c.55 0 1 .45 1 1v2.07A6 6 0 0 1 18 11v7a2 2 0 0 1-2 2H8a2 2 0 0 1-2-2v-7a6 6 0 0 1 5-5.93V3c0-.55.45-1 1-1Zm0 6a4 4 0 0 0-4 4v7h8v-7a4 4 0 0 0-4-4Z"/></symbol>
</svg>
